<?xml version="1.0" encoding="UTF-8"?>
<svg xmlns="http://www.w3.org/2000/svg" viewBox="288.1811999999998 73.96199999999989 118.464 29.616">
<rect x="0" y="0" width="100%" height="100%" fill="#ffffff"/>
<text x="290.181" y="81.962" font-family="sans-serif" font-size="6">v1 expected vs background-svg extracted</text>
<rect x="288.181" y="73.962" width="29.616" height="29.616" fill="none" stroke="#000" stroke-width="0.6"/>
<text x="289.681" y="79.962" font-family="monospace" font-size="6">540</text>
<rect x="314.836" y="85.808" width="2.962" height="2.962" fill="none" stroke="#6b3f00" stroke-width="0.35"/>
<rect x="314.836" y="88.770" width="2.962" height="2.962" fill="#b98a4b" opacity="0.30" stroke="none"/>
<rect x="314.836" y="88.770" width="2.962" height="2.962" fill="none" stroke="#6b3f00" stroke-width="0.35"/>
<rect x="311.874" y="91.732" width="2.962" height="2.962" fill="#b98a4b" opacity="0.30" stroke="none"/>
<rect x="311.874" y="91.732" width="2.962" height="2.962" fill="none" stroke="#6b3f00" stroke-width="0.35"/>
<rect x="314.836" y="91.732" width="2.962" height="2.962" fill="#b98a4b" opacity="0.30" stroke="none"/>
<rect x="314.836" y="91.732" width="2.962" height="2.962" fill="none" stroke="#6b3f00" stroke-width="0.35"/>
<rect x="308.912" y="94.693" width="2.962" height="2.962" fill="#b98a4b" opacity="0.30" stroke="none"/>
<rect x="311.874" y="94.693" width="2.962" height="2.962" fill="#b98a4b" opacity="0.30" stroke="none"/>
<rect x="311.874" y="94.693" width="2.962" height="2.962" fill="none" stroke="#6b3f00" stroke-width="0.35"/>
<rect x="308.912" y="97.655" width="2.962" height="2.962" fill="#b98a4b" opacity="0.30" stroke="none"/>
<rect x="308.912" y="97.655" width="2.962" height="2.962" fill="none" stroke="#6b3f00" stroke-width="0.35"/>
<rect x="305.951" y="100.616" width="2.962" height="2.962" fill="none" stroke="#6b3f00" stroke-width="0.35"/>
<rect x="308.912" y="100.616" width="2.962" height="2.962" fill="#b98a4b" opacity="0.30" stroke="none"/>
<rect x="308.912" y="100.616" width="2.962" height="2.962" fill="none" stroke="#6b3f00" stroke-width="0.35"/>
<rect x="317.797" y="73.962" width="29.616" height="29.616" fill="none" stroke="#000" stroke-width="0.6"/>
<text x="319.297" y="79.962" font-family="monospace" font-size="6">539</text>
<rect x="323.720" y="73.962" width="2.962" height="2.962" fill="#b98a4b" opacity="0.30" stroke="none"/>
<rect x="323.720" y="73.962" width="2.962" height="2.962" fill="none" stroke="#6b3f00" stroke-width="0.35"/>
<rect x="326.682" y="73.962" width="2.962" height="2.962" fill="#b98a4b" opacity="0.30" stroke="none"/>
<rect x="326.682" y="73.962" width="2.962" height="2.962" fill="none" stroke="#6a00ff" stroke-width="0.35"/>
<rect x="329.644" y="73.962" width="2.962" height="2.962" fill="#2f67c7" opacity="0.30" stroke="none"/>
<rect x="329.644" y="73.962" width="2.962" height="2.962" fill="none" stroke="#0055ff" stroke-width="0.35"/>
<rect x="332.605" y="73.962" width="2.962" height="2.962" fill="#2f67c7" opacity="0.30" stroke="none"/>
<rect x="320.759" y="76.924" width="2.962" height="2.962" fill="none" stroke="#6b3f00" stroke-width="0.35"/>
<rect x="323.720" y="76.924" width="2.962" height="2.962" fill="#b98a4b" opacity="0.30" stroke="none"/>
<rect x="323.720" y="76.924" width="2.962" height="2.962" fill="none" stroke="#6b3f00" stroke-width="0.35"/>
<rect x="329.644" y="76.924" width="2.962" height="2.962" fill="none" stroke="#0055ff" stroke-width="0.35"/>
<rect x="332.605" y="76.924" width="2.962" height="2.962" fill="#2f67c7" opacity="0.30" stroke="none"/>
<rect x="320.759" y="79.885" width="2.962" height="2.962" fill="#b98a4b" opacity="0.30" stroke="none"/>
<rect x="320.759" y="79.885" width="2.962" height="2.962" fill="none" stroke="#6b3f00" stroke-width="0.35"/>
<rect x="323.720" y="79.885" width="2.962" height="2.962" fill="#b98a4b" opacity="0.30" stroke="none"/>
<rect x="329.644" y="79.885" width="2.962" height="2.962" fill="none" stroke="#0055ff" stroke-width="0.35"/>
<rect x="332.605" y="79.885" width="2.962" height="2.962" fill="#2f67c7" opacity="0.30" stroke="none"/>
<rect x="332.605" y="79.885" width="2.962" height="2.962" fill="none" stroke="#0055ff" stroke-width="0.35"/>
<rect x="335.567" y="79.885" width="2.962" height="2.962" fill="#2f67c7" opacity="0.30" stroke="none"/>
<rect x="344.452" y="79.885" width="2.962" height="2.962" fill="#2f67c7" opacity="0.30" stroke="none"/>
<rect x="344.452" y="79.885" width="2.962" height="2.962" fill="none" stroke="#0055ff" stroke-width="0.35"/>
<rect x="317.797" y="82.847" width="2.962" height="2.962" fill="none" stroke="#6b3f00" stroke-width="0.35"/>
<rect x="320.759" y="82.847" width="2.962" height="2.962" fill="#b98a4b" opacity="0.30" stroke="none"/>
<rect x="320.759" y="82.847" width="2.962" height="2.962" fill="none" stroke="#6b3f00" stroke-width="0.35"/>
<rect x="332.605" y="82.847" width="2.962" height="2.962" fill="none" stroke="#0055ff" stroke-width="0.35"/>
<rect x="335.567" y="82.847" width="2.962" height="2.962" fill="#2f67c7" opacity="0.30" stroke="none"/>
<rect x="341.490" y="82.847" width="2.962" height="2.962" fill="#2f67c7" opacity="0.30" stroke="none"/>
<rect x="341.490" y="82.847" width="2.962" height="2.962" fill="none" stroke="#0055ff" stroke-width="0.35"/>
<rect x="344.452" y="82.847" width="2.962" height="2.962" fill="#2f67c7" opacity="0.30" stroke="none"/>
<rect x="344.452" y="82.847" width="2.962" height="2.962" fill="none" stroke="#0055ff" stroke-width="0.35"/>
<rect x="317.797" y="85.808" width="2.962" height="2.962" fill="#b98a4b" opacity="0.30" stroke="none"/>
<rect x="317.797" y="85.808" width="2.962" height="2.962" fill="none" stroke="#6b3f00" stroke-width="0.35"/>
<rect x="320.759" y="85.808" width="2.962" height="2.962" fill="#b98a4b" opacity="0.30" stroke="none"/>
<rect x="332.605" y="85.808" width="2.962" height="2.962" fill="none" stroke="#0055ff" stroke-width="0.35"/>
<rect x="335.567" y="85.808" width="2.962" height="2.962" fill="#2f67c7" opacity="0.30" stroke="none"/>
<rect x="335.567" y="85.808" width="2.962" height="2.962" fill="none" stroke="#0055ff" stroke-width="0.35"/>
<rect x="338.528" y="85.808" width="2.962" height="2.962" fill="#2f67c7" opacity="0.30" stroke="none"/>
<rect x="341.490" y="85.808" width="2.962" height="2.962" fill="#2f67c7" opacity="0.30" stroke="none"/>
<rect x="341.490" y="85.808" width="2.962" height="2.962" fill="none" stroke="#0055ff" stroke-width="0.35"/>
<rect x="317.797" y="88.770" width="2.962" height="2.962" fill="#b98a4b" opacity="0.30" stroke="none"/>
<rect x="335.567" y="88.770" width="2.962" height="2.962" fill="#2f67c7" opacity="0.30" stroke="none"/>
<rect x="335.567" y="88.770" width="2.962" height="2.962" fill="none" stroke="#0055ff" stroke-width="0.35"/>
<rect x="338.528" y="88.770" width="2.962" height="2.962" fill="none" stroke="#0055ff" stroke-width="0.35"/>
<rect x="341.490" y="88.770" width="2.962" height="2.962" fill="none" stroke="#0055ff" stroke-width="0.35"/>
<rect x="335.567" y="91.732" width="2.962" height="2.962" fill="#2f67c7" opacity="0.30" stroke="none"/>
<rect x="338.528" y="91.732" width="2.962" height="2.962" fill="none" stroke="#0055ff" stroke-width="0.35"/>
<rect x="335.567" y="94.693" width="2.962" height="2.962" fill="#2f67c7" opacity="0.30" stroke="none"/>
<rect x="338.528" y="94.693" width="2.962" height="2.962" fill="none" stroke="#0055ff" stroke-width="0.35"/>
<rect x="335.567" y="97.655" width="2.962" height="2.962" fill="#2f67c7" opacity="0.30" stroke="none"/>
<rect x="335.567" y="97.655" width="2.962" height="2.962" fill="none" stroke="#0055ff" stroke-width="0.35"/>
<rect x="338.528" y="97.655" width="2.962" height="2.962" fill="none" stroke="#0055ff" stroke-width="0.35"/>
<rect x="335.567" y="100.616" width="2.962" height="2.962" fill="#2f67c7" opacity="0.30" stroke="none"/>
<rect x="335.567" y="100.616" width="2.962" height="2.962" fill="none" stroke="#0055ff" stroke-width="0.35"/>
<rect x="347.413" y="73.962" width="29.616" height="29.616" fill="none" stroke="#000" stroke-width="0.6"/>
<text x="348.913" y="79.962" font-family="monospace" font-size="6">538</text>
<rect x="347.413" y="73.962" width="2.962" height="2.962" fill="none" stroke="#0055ff" stroke-width="0.35"/>
<rect x="350.375" y="73.962" width="2.962" height="2.962" fill="#2f67c7" opacity="0.30" stroke="none"/>
<rect x="350.375" y="73.962" width="2.962" height="2.962" fill="none" stroke="#0055ff" stroke-width="0.35"/>
<rect x="353.336" y="73.962" width="2.962" height="2.962" fill="#2f67c7" opacity="0.30" stroke="none"/>
<rect x="371.106" y="73.962" width="2.962" height="2.962" fill="none" stroke="#6b3f00" stroke-width="0.35"/>
<rect x="374.068" y="73.962" width="2.962" height="2.962" fill="#b98a4b" opacity="0.30" stroke="none"/>
<rect x="347.413" y="76.924" width="2.962" height="2.962" fill="#2f67c7" opacity="0.30" stroke="none"/>
<rect x="347.413" y="76.924" width="2.962" height="2.962" fill="none" stroke="#0055ff" stroke-width="0.35"/>
<rect x="350.375" y="76.924" width="2.962" height="2.962" fill="#2f67c7" opacity="0.30" stroke="none"/>
<rect x="371.106" y="76.924" width="2.962" height="2.962" fill="none" stroke="#6b3f00" stroke-width="0.35"/>
<rect x="374.068" y="76.924" width="2.962" height="2.962" fill="#b98a4b" opacity="0.30" stroke="none"/>
<rect x="347.413" y="79.885" width="2.962" height="2.962" fill="#2f67c7" opacity="0.30" stroke="none"/>
<rect x="347.413" y="79.885" width="2.962" height="2.962" fill="none" stroke="#0055ff" stroke-width="0.35"/>
<rect x="371.106" y="79.885" width="2.962" height="2.962" fill="none" stroke="#6b3f00" stroke-width="0.35"/>
<rect x="374.068" y="79.885" width="2.962" height="2.962" fill="#b98a4b" opacity="0.30" stroke="none"/>
<rect x="374.068" y="79.885" width="2.962" height="2.962" fill="none" stroke="#6b3f00" stroke-width="0.35"/>
<rect x="374.068" y="82.847" width="2.962" height="2.962" fill="none" stroke="#6b3f00" stroke-width="0.35"/>
<rect x="377.029" y="73.962" width="29.616" height="29.616" fill="none" stroke="#000" stroke-width="0.6"/>
<text x="378.529" y="79.962" font-family="monospace" font-size="6">537</text>
<rect x="388.876" y="73.962" width="2.962" height="2.962" fill="#2f67c7" opacity="0.30" stroke="none"/>
<rect x="388.876" y="73.962" width="2.962" height="2.962" fill="none" stroke="#0055ff" stroke-width="0.35"/>
<rect x="388.876" y="76.924" width="2.962" height="2.962" fill="#2f67c7" opacity="0.30" stroke="none"/>
<rect x="388.876" y="76.924" width="2.962" height="2.962" fill="none" stroke="#0055ff" stroke-width="0.35"/>
<rect x="400.722" y="76.924" width="2.962" height="2.962" fill="#2f67c7" opacity="0.30" stroke="none"/>
<rect x="403.684" y="76.924" width="2.962" height="2.962" fill="#2f67c7" opacity="0.30" stroke="none"/>
<rect x="377.029" y="79.885" width="2.962" height="2.962" fill="#b98a4b" opacity="0.30" stroke="none"/>
<rect x="388.876" y="79.885" width="2.962" height="2.962" fill="#2f67c7" opacity="0.30" stroke="none"/>
<rect x="388.876" y="79.885" width="2.962" height="2.962" fill="none" stroke="#0055ff" stroke-width="0.35"/>
<rect x="391.837" y="79.885" width="2.962" height="2.962" fill="#2f67c7" opacity="0.30" stroke="none"/>
<rect x="397.760" y="79.885" width="2.962" height="2.962" fill="#2f67c7" opacity="0.30" stroke="none"/>
<rect x="400.722" y="79.885" width="2.962" height="2.962" fill="#2f67c7" opacity="0.30" stroke="none"/>
<rect x="400.722" y="79.885" width="2.962" height="2.962" fill="none" stroke="#0055ff" stroke-width="0.35"/>
<rect x="403.684" y="79.885" width="2.962" height="2.962" fill="none" stroke="#0055ff" stroke-width="0.35"/>
<rect x="377.029" y="82.847" width="2.962" height="2.962" fill="#b98a4b" opacity="0.30" stroke="none"/>
<rect x="377.029" y="82.847" width="2.962" height="2.962" fill="none" stroke="#6b3f00" stroke-width="0.35"/>
<rect x="379.991" y="82.847" width="2.962" height="2.962" fill="#b98a4b" opacity="0.30" stroke="none"/>
<rect x="388.876" y="82.847" width="2.962" height="2.962" fill="none" stroke="#0055ff" stroke-width="0.35"/>
<rect x="391.837" y="82.847" width="2.962" height="2.962" fill="#2f67c7" opacity="0.30" stroke="none"/>
<rect x="394.799" y="82.847" width="2.962" height="2.962" fill="#2f67c7" opacity="0.30" stroke="none"/>
<rect x="394.799" y="82.847" width="2.962" height="2.962" fill="none" stroke="#0055ff" stroke-width="0.35"/>
<rect x="397.760" y="82.847" width="2.962" height="2.962" fill="#2f67c7" opacity="0.30" stroke="none"/>
<rect x="397.760" y="82.847" width="2.962" height="2.962" fill="none" stroke="#0055ff" stroke-width="0.35"/>
<rect x="400.722" y="82.847" width="2.962" height="2.962" fill="#b98a4b" opacity="0.30" stroke="none"/>
<rect x="400.722" y="82.847" width="2.962" height="2.962" fill="none" stroke="#0055ff" stroke-width="0.35"/>
<rect x="403.684" y="82.847" width="2.962" height="2.962" fill="#b98a4b" opacity="0.30" stroke="none"/>
<rect x="403.684" y="82.847" width="2.962" height="2.962" fill="none" stroke="#6b3f00" stroke-width="0.35"/>
<rect x="377.029" y="85.808" width="2.962" height="2.962" fill="none" stroke="#6b3f00" stroke-width="0.35"/>
<rect x="379.991" y="85.808" width="2.962" height="2.962" fill="#b98a4b" opacity="0.30" stroke="none"/>
<rect x="379.991" y="85.808" width="2.962" height="2.962" fill="none" stroke="#6b3f00" stroke-width="0.35"/>
<rect x="382.952" y="85.808" width="2.962" height="2.962" fill="#b98a4b" opacity="0.30" stroke="none"/>
<rect x="388.876" y="85.808" width="2.962" height="2.962" fill="none" stroke="#0055ff" stroke-width="0.35"/>
<rect x="391.837" y="85.808" width="2.962" height="2.962" fill="#2f67c7" opacity="0.30" stroke="none"/>
<rect x="391.837" y="85.808" width="2.962" height="2.962" fill="none" stroke="#0055ff" stroke-width="0.35"/>
<rect x="394.799" y="85.808" width="2.962" height="2.962" fill="none" stroke="#6a00ff" stroke-width="0.35"/>
<rect x="397.760" y="85.808" width="2.962" height="2.962" fill="#b98a4b" opacity="0.30" stroke="none"/>
<rect x="397.760" y="85.808" width="2.962" height="2.962" fill="none" stroke="#6b3f00" stroke-width="0.35"/>
<rect x="400.722" y="85.808" width="2.962" height="2.962" fill="#b98a4b" opacity="0.30" stroke="none"/>
<rect x="400.722" y="85.808" width="2.962" height="2.962" fill="none" stroke="#6b3f00" stroke-width="0.35"/>
<rect x="403.684" y="85.808" width="2.962" height="2.962" fill="none" stroke="#6b3f00" stroke-width="0.35"/>
<rect x="379.991" y="88.770" width="2.962" height="2.962" fill="none" stroke="#6b3f00" stroke-width="0.35"/>
<rect x="382.952" y="88.770" width="2.962" height="2.962" fill="#b98a4b" opacity="0.30" stroke="none"/>
<rect x="382.952" y="88.770" width="2.962" height="2.962" fill="none" stroke="#6b3f00" stroke-width="0.35"/>
<rect x="385.914" y="88.770" width="2.962" height="2.962" fill="#b98a4b" opacity="0.30" stroke="none"/>
<rect x="385.914" y="88.770" width="2.962" height="2.962" fill="none" stroke="#6b3f00" stroke-width="0.35"/>
<rect x="388.876" y="88.770" width="2.962" height="2.962" fill="#2f67c7" opacity="0.30" stroke="none"/>
<rect x="388.876" y="88.770" width="2.962" height="2.962" fill="none" stroke="#6a00ff" stroke-width="0.35"/>
<rect x="391.837" y="88.770" width="2.962" height="2.962" fill="#2f67c7" opacity="0.30" stroke="none"/>
<rect x="391.837" y="88.770" width="2.962" height="2.962" fill="none" stroke="#6b3f00" stroke-width="0.35"/>
<rect x="385.914" y="91.732" width="2.962" height="2.962" fill="#b98a4b" opacity="0.30" stroke="none"/>
<rect x="388.876" y="91.732" width="2.962" height="2.962" fill="#2f67c7" opacity="0.30" stroke="none"/>
<rect x="388.876" y="91.732" width="2.962" height="2.962" fill="none" stroke="#6a00ff" stroke-width="0.35"/>
<rect x="385.914" y="94.693" width="2.962" height="2.962" fill="#2f67c7" opacity="0.30" stroke="none"/>
<rect x="385.914" y="94.693" width="2.962" height="2.962" fill="none" stroke="#0055ff" stroke-width="0.35"/>
<rect x="388.876" y="94.693" width="2.962" height="2.962" fill="#2f67c7" opacity="0.30" stroke="none"/>
<rect x="388.876" y="94.693" width="2.962" height="2.962" fill="none" stroke="#6b3f00" stroke-width="0.35"/>
<rect x="391.837" y="94.693" width="2.962" height="2.962" fill="none" stroke="#6b3f00" stroke-width="0.35"/>
<rect x="385.914" y="97.655" width="2.962" height="2.962" fill="#2f67c7" opacity="0.30" stroke="none"/>
<rect x="385.914" y="97.655" width="2.962" height="2.962" fill="none" stroke="#0055ff" stroke-width="0.35"/>
<rect x="388.876" y="97.655" width="2.962" height="2.962" fill="none" stroke="#6b3f00" stroke-width="0.35"/>
<rect x="391.837" y="97.655" width="2.962" height="2.962" fill="none" stroke="#6b3f00" stroke-width="0.35"/>
<rect x="394.799" y="97.655" width="2.962" height="2.962" fill="#b98a4b" opacity="0.30" stroke="none"/>
<rect x="385.914" y="100.616" width="2.962" height="2.962" fill="#2f67c7" opacity="0.30" stroke="none"/>
<rect x="385.914" y="100.616" width="2.962" height="2.962" fill="none" stroke="#0055ff" stroke-width="0.35"/>
<rect x="388.876" y="100.616" width="2.962" height="2.962" fill="none" stroke="#6b3f00" stroke-width="0.35"/>
<rect x="391.837" y="100.616" width="2.962" height="2.962" fill="#b98a4b" opacity="0.30" stroke="none"/>
<rect x="394.799" y="100.616" width="2.962" height="2.962" fill="#b98a4b" opacity="0.30" stroke="none"/>
</svg>
